<svg xmlns="http://www.w3.org/2000/svg" viewBox="0 0 128 128">
  <circle cx="64" cy="64" r="64" fill="#202A24"/>
  <circle cx="64" cy="64" r="58" fill="none" stroke="#2E6B4F" stroke-width="1.5" opacity="0.45"/>
  <circle cx="64" cy="64" r="58" fill="none" stroke="#C9A24B" stroke-width="2" opacity="0.85"/>
  <g fill="#2E6B4F">
    <circle cx="64" cy="46" r="13"/>
    <path d="M 64 58 c -14 0 -21 8 -23 18 l -3 16 a 4 4 0 0 0 4 4.6 h 44 a 4 4 0 0 0 4 -4.6 l -3 -16 c -2 -10 -9 -18 -23 -18 Z"/>
  </g>
  <path d="M 56 44 a 8 8 0 0 1 8 -6" fill="none" stroke="#202A24" stroke-width="1.4" opacity="0.5" stroke-linecap="round"/>
  <path d="M 50 66 c 4 -3 9 -4 14 -4" fill="none" stroke="#C9A24B" stroke-width="1.2" opacity="0.55" stroke-linecap="round"/>
</svg>
